<?xml version="1.0" encoding="UTF-8"?>
<!DOCTYPE svg PUBLIC "-//W3C//DTD SVG 1.1//EN" "http://www.w3.org/Graphics/SVG/1.1/DTD/svg11.dtd">
<!-- Creator: CorelDRAW 2020 (64-Bit) -->
<svg xmlns="http://www.w3.org/2000/svg" xml:space="preserve" width="91.7141mm" height="91.3291mm" version="1.1" style="shape-rendering:geometricPrecision; text-rendering:geometricPrecision; image-rendering:optimizeQuality; fill-rule:evenodd; clip-rule:evenodd"
viewBox="0 0 9170.32 9131.82"
 xmlns:xlink="http://www.w3.org/1999/xlink"
 xmlns:xodm="http://www.corel.com/coreldraw/odm/2003">
 <defs>
  <style type="text/css">
   <![CDATA[
    .fil0 {fill:#9809F0;fill-rule:nonzero}
   ]]>
  </style>
 </defs>
 <g id="Capa_x0020_2">
  <metadata id="CorelCorpID_0Corel-Layer"/>
  <g id="_1892682082224">
   <path class="fil0" d="M305.67 4653.38c-63.76,-36.57 -142.28,-67.78 -198.81,-101.84 -46.01,-27.78 -61.26,-88.46 -34.09,-135.49l2678.62 -4367.48c23.45,-40.61 72.74,-59.37 117.4,-42.19 75.05,28.84 393.95,227.56 673.9,402.01 214.53,133.69 405.48,252.69 422.15,258.35 32.7,11.08 384.88,-86.99 719.8,-180.26 274.18,-76.36 537.45,-149.67 642.88,-160.41 30.98,-3.01 62.84,9.22 84.08,35.61 203.84,253.21 1660.71,2779.04 1735.32,2927.92 20.01,37.43 75.16,69.06 144.13,108.56 31.16,17.86 64.68,37.09 101.37,60.48 608.84,388.38 1137.41,688.57 1715.15,1133.73 -1.81,3.24 -621.84,721.38 -711.87,740.17 -43.84,9.16 -75.25,-0.98 -134.89,-20.25 -22.49,-7.29 -50.15,-16.24 -77.29,-24.09 -987.76,-286.05 -2002,-543.96 -2975.13,-864.82 -56.56,-18.68 -59.51,-19.65 -146.91,33.25 -775.4,469.18 -1599.11,913.38 -2389.66,1365.49 -4.35,2.58 -8.93,4.83 -13.75,6.74 -102.45,40.44 -217.47,-32.46 -307.11,-89.27 -634.19,-347.81 -1384.51,-708.58 -2045.31,-1086.2z"/>
   <path class="fil0" d="M1655.51 7014.79c-602.56,-306.29 -1385.38,-704.25 -1575.95,-823.05 -38.94,-24.18 -80.44,-115.58 -79.54,-159.85l13.61 -677.28c1.48,-73.14 45.64,-120.27 103.6,-88.33 764.15,401.45 1535,791.89 2297.08,1196.28 37.26,19.97 69.6,38.44 97.32,54.24 63.76,36.36 92.61,52.8 117.89,46.11 40.32,-10.64 105.76,-49.12 225.1,-119.33 97.3,-57.24 227.26,-133.66 396.79,-226.54l1851.42 -1035.41c118.88,-64.62 190.33,-40.18 286.21,-7.33 18.64,6.37 38.63,13.23 59.11,19 111.69,31.45 299.3,85.31 539.74,154.31 840.74,241.3 2304.71,661.49 2546.62,714.2l494.9 -406.21c3.34,-1.97 6.82,-3.79 10.46,-5.42 49.79,-22.23 108.24,0.13 130.46,49.93 -0.26,84.01 -28.19,497.81 -15.32,545.84 -138.47,167.78 -412.84,539.8 -564.98,714.9 -68.4,34.68 -105.61,22.2 -184.76,-4.4 -18.75,-6.31 -41.55,-13.97 -73.12,-22.93l-2954.5 -835.48c-23.39,-6.69 -55.66,-16.97 -82.35,-25.46 -60.91,-19.37 -60.97,-19.39 -154.26,33.38l-2437.81 1362.32c-6.95,4.44 -14.56,8.08 -22.76,10.74 -97.48,31.97 -226.18,-44.76 -316.26,-98.47 -17.34,-10.34 -32.82,-19.57 -45.22,-26.15 -107.55,-56.99 -363.48,-187.11 -663.46,-339.61z"/>
   <path class="fil0" d="M1655.51 8660.06c-602.56,-306.28 -1385.38,-704.25 -1575.95,-823.05 -38.94,-24.18 -80.44,-115.58 -79.54,-159.85l13.61 -677.28c1.48,-73.14 45.64,-120.27 103.6,-88.33 764.15,401.46 1535,791.89 2297.08,1196.28 37.26,19.97 69.6,38.44 97.32,54.24 63.76,36.36 92.61,52.8 117.89,46.11 40.32,-10.64 105.76,-49.12 225.1,-119.33 97.3,-57.24 227.26,-133.66 396.79,-226.54l1851.42 -1035.41c118.88,-64.62 190.33,-40.18 286.21,-7.32 18.64,6.36 38.63,13.22 59.11,18.99 111.69,31.45 299.3,85.31 539.74,154.31 840.74,241.3 2304.71,661.49 2546.62,714.2l494.9 -406.21c3.34,-1.97 6.82,-3.79 10.46,-5.42 49.79,-22.23 108.24,0.13 130.46,49.93 -0.26,84.01 -28.19,497.81 -15.32,545.84 -138.47,167.78 -412.84,539.8 -564.98,714.9 -68.4,34.68 -105.61,22.2 -184.76,-4.4 -18.75,-6.31 -41.55,-13.97 -73.12,-22.93l-2954.5 -835.48c-23.39,-6.69 -55.66,-16.97 -82.35,-25.46 -60.91,-19.37 -60.97,-19.39 -154.26,33.38l-2437.81 1362.33c-6.95,4.43 -14.56,8.07 -22.76,10.73 -97.48,31.97 -226.18,-44.76 -316.26,-98.47 -17.34,-10.34 -32.82,-19.57 -45.22,-26.15 -107.55,-56.99 -363.48,-187.11 -663.46,-339.61z"/>
  </g>
 </g>
</svg>
