<svg width="22" height="35" viewBox="0 0 22 35" fill="none" xmlns="http://www.w3.org/2000/svg">
<path d="M4.81477 0.718102C4.71889 0.62222 4.58818 0.569393 4.4526 0.57173C4.31703 0.574066 4.18821 0.631367 4.09569 0.730496L1.53682 3.47215C1.35386 3.66817 1.3581 3.97361 1.54643 4.16448L14.7254 17.5216L1.54643 30.8787C1.3581 31.0695 1.35386 31.375 1.53682 31.571L4.09569 34.3127C4.18821 34.4118 4.31703 34.4691 4.4526 34.4714C4.58818 34.4738 4.71889 34.4209 4.81477 34.3251L21.2647 17.8751C21.3585 17.7814 21.4111 17.6542 21.4111 17.5216C21.4111 17.389 21.3585 17.2618 21.2647 17.168L4.81477 0.718102Z" fill="#00CEC9" stroke="#00CEC9" stroke-linejoin="round"/>
</svg>
