<svg width="21" height="35" viewBox="0 0 21 35" fill="none" xmlns="http://www.w3.org/2000/svg">
<path d="M17.0964 0.718102C17.1922 0.62222 17.323 0.569393 17.4585 0.57173C17.5941 0.574066 17.7229 0.631367 17.8154 0.730496L20.3743 3.47215C20.5573 3.66817 20.553 3.97361 20.3647 4.16448L7.1857 17.5216L20.3647 30.8787C20.553 31.0695 20.5573 31.375 20.3743 31.571L17.8154 34.3127C17.7229 34.4118 17.5941 34.4691 17.4585 34.4714C17.323 34.4738 17.1922 34.4209 17.0964 34.3251L0.646433 17.8751C0.552666 17.7814 0.499987 17.6542 0.499987 17.5216C0.499987 17.389 0.552666 17.2618 0.646433 17.168L17.0964 0.718102Z" fill="#00CEC9" stroke="#00CEC9" stroke-linejoin="round"/>
</svg>
