<svg width="20" height="13" viewBox="0 0 20 13" fill="none" xmlns="http://www.w3.org/2000/svg">
<path d="M18.8567 3.19652C18.9506 3.10089 19.0022 2.97156 18.9999 2.83753C18.9976 2.70351 18.9416 2.57603 18.8444 2.4837L17.4278 1.13754C17.2309 0.950445 16.9206 0.954754 16.729 1.14725L10 7.90668L3.27102 1.14724C3.07939 0.954753 2.76915 0.950445 2.57225 1.13754L1.15558 2.48369C1.05841 2.57603 1.00239 2.70351 1.00007 2.83753C0.997763 2.97156 1.04936 3.10089 1.14329 3.19652L9.64329 11.8504C9.7373 11.9461 9.86584 12 10 12C10.1342 12 10.2627 11.9461 10.3567 11.8504L18.8567 3.19652Z" fill="white" stroke="white" stroke-linejoin="round"/>
</svg>
