<svg width="36" height="27" viewBox="0 0 36 27" fill="none" xmlns="http://www.w3.org/2000/svg">
<path d="M30.1165 2.38334C27.8999 1.35001 25.4999 0.600005 22.9999 0.166672C22.978 0.165971 22.9561 0.170085 22.936 0.178723C22.9158 0.187362 22.8978 0.200317 22.8832 0.216672C22.5832 0.766673 22.2332 1.48334 21.9999 2.03334C19.3482 1.63334 16.6515 1.63334 13.9999 2.03334C13.7665 1.46667 13.4165 0.766673 13.0999 0.216672C13.0832 0.183339 13.0332 0.166672 12.9832 0.166672C10.4832 0.600005 8.09987 1.35001 5.86654 2.38334C5.84987 2.38334 5.8332 2.40001 5.81654 2.41667C1.2832 9.20001 0.0332032 15.8 0.64987 22.3333C0.64987 22.3667 0.666536 22.4 0.69987 22.4167C3.69987 24.6167 6.5832 25.95 9.4332 26.8333C9.4832 26.85 9.5332 26.8333 9.54987 26.8C10.2165 25.8833 10.8165 24.9167 11.3332 23.9C11.3665 23.8333 11.3332 23.7667 11.2665 23.75C10.3165 23.3833 9.41654 22.95 8.5332 22.45C8.46654 22.4167 8.46654 22.3167 8.51654 22.2667C8.69987 22.1333 8.8832 21.9833 9.06654 21.85C9.09987 21.8167 9.14987 21.8167 9.1832 21.8333C14.9165 24.45 21.0999 24.45 26.7665 21.8333C26.7999 21.8167 26.8499 21.8167 26.8832 21.85C27.0665 22 27.2499 22.1333 27.4332 22.2833C27.4999 22.3333 27.4999 22.4333 27.4165 22.4667C26.5499 22.9833 25.6332 23.4 24.6832 23.7667C24.6165 23.7833 24.5999 23.8667 24.6165 23.9167C25.1499 24.9333 25.7499 25.9 26.3999 26.8167C26.4499 26.8333 26.4999 26.85 26.5499 26.8333C29.4165 25.95 32.2999 24.6167 35.2999 22.4167C35.3332 22.4 35.3499 22.3667 35.3499 22.3333C36.0832 14.7833 34.1332 8.23334 30.1832 2.41667C30.1665 2.40001 30.1499 2.38334 30.1165 2.38334ZM12.1999 18.35C10.4832 18.35 9.04987 16.7667 9.04987 14.8167C9.04987 12.8667 10.4499 11.2833 12.1999 11.2833C13.9665 11.2833 15.3665 12.8833 15.3499 14.8167C15.3499 16.7667 13.9499 18.35 12.1999 18.35ZM23.8165 18.35C22.0999 18.35 20.6665 16.7667 20.6665 14.8167C20.6665 12.8667 22.0665 11.2833 23.8165 11.2833C25.5832 11.2833 26.9832 12.8833 26.9665 14.8167C26.9665 16.7667 25.5832 18.35 23.8165 18.35Z" fill="white"/>
</svg>
