<svg width="34" height="35" viewBox="0 0 34 35" fill="none" xmlns="http://www.w3.org/2000/svg">
<path d="M9.99967 0.833313H23.9997C29.333 0.833313 33.6663 5.16665 33.6663 10.5V24.5C33.6663 27.0637 32.6479 29.5225 30.835 31.3353C29.0222 33.1482 26.5634 34.1666 23.9997 34.1666H9.99967C4.66634 34.1666 0.333008 29.8333 0.333008 24.5V10.5C0.333008 7.93622 1.35146 5.47747 3.16431 3.66461C4.97716 1.85176 7.43592 0.833313 9.99967 0.833313ZM9.66634 4.16665C8.07504 4.16665 6.54892 4.79879 5.4237 5.92401C4.29848 7.04922 3.66634 8.57535 3.66634 10.1666V24.8333C3.66634 28.15 6.34967 30.8333 9.66634 30.8333H24.333C25.9243 30.8333 27.4504 30.2012 28.5757 29.076C29.7009 27.9507 30.333 26.4246 30.333 24.8333V10.1666C30.333 6.84998 27.6497 4.16665 24.333 4.16665H9.66634ZM25.7497 6.66665C26.3022 6.66665 26.8321 6.88614 27.2228 7.27684C27.6135 7.66754 27.833 8.19745 27.833 8.74998C27.833 9.30251 27.6135 9.83242 27.2228 10.2231C26.8321 10.6138 26.3022 10.8333 25.7497 10.8333C25.1971 10.8333 24.6672 10.6138 24.2765 10.2231C23.8858 9.83242 23.6663 9.30251 23.6663 8.74998C23.6663 8.19745 23.8858 7.66754 24.2765 7.27684C24.6672 6.88614 25.1971 6.66665 25.7497 6.66665ZM16.9997 9.16665C19.2098 9.16665 21.3294 10.0446 22.8922 11.6074C24.455 13.1702 25.333 15.2898 25.333 17.5C25.333 19.7101 24.455 21.8297 22.8922 23.3925C21.3294 24.9553 19.2098 25.8333 16.9997 25.8333C14.7895 25.8333 12.6699 24.9553 11.1071 23.3925C9.54432 21.8297 8.66634 19.7101 8.66634 17.5C8.66634 15.2898 9.54432 13.1702 11.1071 11.6074C12.6699 10.0446 14.7895 9.16665 16.9997 9.16665ZM16.9997 12.5C15.6736 12.5 14.4018 13.0268 13.4641 13.9644C12.5265 14.9021 11.9997 16.1739 11.9997 17.5C11.9997 18.8261 12.5265 20.0978 13.4641 21.0355C14.4018 21.9732 15.6736 22.5 16.9997 22.5C18.3258 22.5 19.5975 21.9732 20.5352 21.0355C21.4729 20.0978 21.9997 18.8261 21.9997 17.5C21.9997 16.1739 21.4729 14.9021 20.5352 13.9644C19.5975 13.0268 18.3258 12.5 16.9997 12.5Z" fill="white"/>
</svg>
