<svg width="28" height="30" viewBox="0 0 28 30" fill="none" xmlns="http://www.w3.org/2000/svg">
<path d="M21.6669 4.7C20.5276 3.39937 19.8998 1.72905 19.9003 0H14.7503V20.6667C14.7105 21.785 14.2384 22.8444 13.4332 23.6216C12.628 24.3988 11.5527 24.8332 10.4336 24.8333C8.06693 24.8333 6.10026 22.9 6.10026 20.5C6.10026 17.6333 8.86693 15.4833 11.7169 16.3667V11.1C5.96693 10.3333 0.933594 14.8 0.933594 20.5C0.933594 26.05 5.53359 30 10.4169 30C15.6503 30 19.9003 25.75 19.9003 20.5V10.0167C21.9886 11.5164 24.4959 12.3211 27.0669 12.3167V7.16667C27.0669 7.16667 23.9336 7.31667 21.6669 4.7Z" fill="white"/>
</svg>
