<svg width="34" height="25" viewBox="0 0 34 25" fill="none" xmlns="http://www.w3.org/2000/svg">
<path d="M13.6663 17.5L22.3163 12.5L13.6663 7.50001V17.5ZM32.933 4.45001C33.1497 5.23334 33.2997 6.28334 33.3997 7.61668C33.5163 8.95001 33.5663 10.1 33.5663 11.1L33.6663 12.5C33.6663 16.15 33.3997 18.8333 32.933 20.55C32.5163 22.05 31.5497 23.0167 30.0497 23.4333C29.2663 23.65 27.833 23.8 25.633 23.9C23.4663 24.0167 21.483 24.0667 19.6497 24.0667L16.9997 24.1667C10.0163 24.1667 5.66634 23.9 3.94967 23.4333C2.44967 23.0167 1.48301 22.05 1.06634 20.55C0.849675 19.7667 0.699675 18.7167 0.599675 17.3833C0.483008 16.05 0.433008 14.9 0.433008 13.9L0.333008 12.5C0.333008 8.85001 0.599675 6.16668 1.06634 4.45001C1.48301 2.95001 2.44967 1.98334 3.94967 1.56668C4.73301 1.35001 6.16634 1.20001 8.36634 1.10001C10.533 0.983343 12.5163 0.933343 14.3497 0.933343L16.9997 0.833344C23.983 0.833344 28.333 1.10001 30.0497 1.56668C31.5497 1.98334 32.5163 2.95001 32.933 4.45001Z" fill="white"/>
</svg>
